<svg width="26" height="26" viewBox="0 0 26 26" fill="none" xmlns="http://www.w3.org/2000/svg">
<path d="M22.1929 6.63923C22.1929 5.26495 21.385 4.20638 20.085 3.87209C19.5743 3.74209 19.0172 3.72352 18.4972 3.72352C15.2564 3.71423 9.71287 3.71423 6.77858 3.71423C5.04215 3.71423 3.72358 4.93995 3.71429 6.54638C3.71429 11.1335 3.71429 15.0799 3.71429 19.5742V20.8371C3.71429 21.6635 4.29929 22.2671 5.10715 22.2764C5.84072 22.2764 6.84358 22.2857 7.83715 22.2857C8.88644 22.2857 9.92644 22.2857 10.6414 22.2671C11.4679 22.2578 12.025 21.6821 12.0343 20.8278C12.0343 20.5492 12.0343 20.3542 12.0343 20.1592C12.0343 20.0014 12.0343 19.8435 12.0343 19.6207C12.0343 19.5092 12.0343 19.3142 12.0714 19.2771C12.1086 19.2399 12.3129 19.2399 12.4336 19.2399C12.7957 19.2399 13.1672 19.2399 13.5293 19.2399C13.7583 19.2399 13.8729 19.3514 13.8729 19.5742C13.8729 19.8714 13.8729 20.0571 13.8729 20.2707C13.8729 20.3914 13.8729 20.5307 13.8729 20.6978C13.8729 21.71 14.43 22.2671 15.4329 22.2671C16.8072 22.2671 19.3143 22.2671 20.6329 22.2671C21.6357 22.2671 22.1929 21.71 22.1929 20.6978C22.1929 18.8685 22.1929 17.3271 22.1929 15.4978V11.4214C22.1929 9.83352 22.1929 8.33852 22.1929 6.62995V6.63923ZM20.3357 20.3821V20.4099C20.3357 20.4099 20.3357 20.5492 20.3264 20.5585C20.3264 20.5585 20.3079 20.5771 20.2429 20.5771C19.5464 20.5771 18.3764 20.5771 17.3364 20.5771C16.7329 20.5771 16.1757 20.5771 15.7764 20.5771C15.7764 20.5771 15.7579 20.5771 15.7486 20.5771V20.2707C15.7486 20.0385 15.7486 19.8435 15.7486 19.5278C15.7486 18.4135 14.9686 17.5964 13.8729 17.5592C13.2972 17.5407 12.6936 17.5407 12.0714 17.5592C10.9664 17.5964 10.1957 18.4042 10.1864 19.5278C10.1864 19.8435 10.1864 20.0385 10.1864 20.2799V20.5957H9.24858C9.06287 20.5957 8.81215 20.5957 8.52429 20.5957C7.63287 20.5957 6.40715 20.5957 5.84072 20.5957C5.72929 20.5957 5.65501 20.5957 5.62715 20.5585C5.60858 20.5399 5.59001 20.5028 5.59001 20.3635C5.59001 16.9928 5.59001 14.1235 5.59001 10.8828C5.59001 9.48995 5.59001 8.06923 5.59001 6.62066C5.59001 5.94281 5.97072 5.53423 6.64858 5.45995C6.74144 5.45066 6.83429 5.44138 6.96429 5.44138H8.79358C9.87072 5.44138 11.0872 5.44138 12.3222 5.44138C14.7364 5.44138 17.2343 5.44138 19.0079 5.45066C19.2957 5.45066 19.63 5.53423 19.9086 5.69209C20.2057 5.84995 20.3543 6.14709 20.3543 6.58352C20.3543 11.4307 20.3543 15.5535 20.3543 20.4007L20.3357 20.3821Z" fill="#0A192D"/>
<path d="M11.3748 7.37048H8.44054C8.0354 7.37048 7.70697 7.69891 7.70697 8.10405V8.25263C7.70697 8.65777 8.0354 8.9862 8.44054 8.9862H11.3748C11.78 8.9862 12.1084 8.65777 12.1084 8.25263V8.10405C12.1084 7.69891 11.78 7.37048 11.3748 7.37048Z" fill="#0A192D"/>
<path d="M17.5221 7.37048H14.5878C14.1827 7.37048 13.8542 7.69891 13.8542 8.10405V8.25263C13.8542 8.65777 14.1827 8.9862 14.5878 8.9862H17.5221C17.9272 8.9862 18.2557 8.65777 18.2557 8.25263V8.10405C18.2557 7.69891 17.9272 7.37048 17.5221 7.37048Z" fill="#0A192D"/>
<path d="M11.3748 10.5406H8.44054C8.0354 10.5406 7.70697 10.8691 7.70697 11.2742V11.4228C7.70697 11.8279 8.0354 12.1564 8.44054 12.1564H11.3748C11.78 12.1564 12.1084 11.8279 12.1084 11.4228V11.2742C12.1084 10.8691 11.78 10.5406 11.3748 10.5406Z" fill="#0A192D"/>
<path d="M17.5221 10.5406H14.5878C14.1827 10.5406 13.8542 10.8691 13.8542 11.2742V11.4228C13.8542 11.8279 14.1827 12.1564 14.5878 12.1564H17.5221C17.9272 12.1564 18.2557 11.8279 18.2557 11.4228V11.2742C18.2557 10.8691 17.9272 10.5406 17.5221 10.5406Z" fill="#0A192D"/>
<path d="M11.3748 13.9938H8.44054C8.0354 13.9938 7.70697 14.3222 7.70697 14.7273V14.8759C7.70697 15.2811 8.0354 15.6095 8.44054 15.6095H11.3748C11.78 15.6095 12.1084 15.2811 12.1084 14.8759V14.7273C12.1084 14.3222 11.78 13.9938 11.3748 13.9938Z" fill="#0A192D"/>
<path d="M17.5221 13.9938H14.5878C14.1827 13.9938 13.8542 14.3222 13.8542 14.7273V14.8759C13.8542 15.2811 14.1827 15.6095 14.5878 15.6095H17.5221C17.9272 15.6095 18.2557 15.2811 18.2557 14.8759V14.7273C18.2557 14.3222 17.9272 13.9938 17.5221 13.9938Z" fill="#0A192D"/>
</svg>
