<svg width="26" height="26" viewBox="0 0 26 26" fill="none" xmlns="http://www.w3.org/2000/svg">
<path d="M10.7807 12.4336C10.7108 12.5019 10.6553 12.5835 10.6173 12.6736C10.5794 12.7637 10.5599 12.8605 10.5599 12.9583C10.5599 13.056 10.5794 13.1528 10.6173 13.2429C10.6553 13.333 10.7108 13.4146 10.7807 13.4829C11.0744 13.7798 11.4245 14.0149 11.8104 14.1744C12.1964 14.3338 12.6103 14.4145 13.0279 14.4115C13.4451 14.4124 13.8585 14.3308 14.2441 14.1715C14.6298 14.0121 14.9801 13.7781 15.275 13.4829C15.4031 13.3416 15.4719 13.1565 15.4672 12.9658C15.4625 12.7752 15.3846 12.5937 15.2498 12.4588C15.115 12.324 14.9334 12.2462 14.7428 12.2415C14.5522 12.2368 14.367 12.3056 14.2257 12.4336C13.9028 12.7413 13.4739 12.9129 13.0279 12.9129C12.5818 12.9129 12.1529 12.7413 11.83 12.4336C11.6908 12.2947 11.5021 12.2167 11.3054 12.2167C11.1087 12.2167 10.92 12.2947 10.7807 12.4336Z" fill="#92A2B9"/>
<path d="M18.9243 19.6207L16.5657 18.4878C16.4511 18.433 16.3243 18.4084 16.1975 18.4166C16.0707 18.4247 15.9481 18.4652 15.8414 18.5342L13.0557 20.3914L10.1586 18.4228C10.0499 18.3507 9.92449 18.3077 9.79441 18.2979C9.66433 18.2882 9.53393 18.312 9.41571 18.3671L7.25213 19.3885C7.15915 19.4319 7.07601 19.4938 7.00784 19.5704C6.93966 19.6471 6.88789 19.7369 6.85571 19.8343C6.82353 19.9317 6.81162 20.0347 6.82071 20.1369C6.8298 20.2391 6.85969 20.3383 6.90856 20.4285C6.95021 20.5172 7.00922 20.5967 7.08209 20.6622C7.15496 20.7277 7.24022 20.778 7.33283 20.81C7.42545 20.842 7.52354 20.8552 7.62132 20.8487C7.7191 20.8422 7.81458 20.8161 7.90213 20.7721L9.65713 19.9178L12.61 21.9235C12.7336 22.0068 12.8788 22.052 13.0278 22.0535C13.1724 22.0506 13.3135 22.0089 13.4364 21.9328L16.2964 20.0757L18.2743 21.0042C18.3618 21.0483 18.4573 21.0743 18.5551 21.0808C18.6529 21.0873 18.751 21.0742 18.8436 21.0422C18.9362 21.0101 19.0215 20.9599 19.0943 20.8944C19.1672 20.8288 19.2262 20.7494 19.2678 20.6607C19.3167 20.5705 19.3466 20.4712 19.3557 20.369C19.3648 20.2668 19.3529 20.1639 19.3207 20.0665C19.2885 19.969 19.2367 19.8792 19.1686 19.8026C19.1004 19.7259 19.0173 19.664 18.9243 19.6207Z" fill="#92A2B9"/>
<path d="M13 18.4785C14.4325 18.4785 15.8328 18.0537 17.0239 17.2579C18.215 16.462 19.1433 15.3308 19.6915 14.0074C20.2397 12.6839 20.3832 11.2276 20.1037 9.82265C19.8242 8.41767 19.1344 7.12712 18.1215 6.11418C17.1085 5.10125 15.818 4.41144 14.413 4.13197C13.008 3.8525 11.5517 3.99594 10.2283 4.54413C8.90482 5.09233 7.77364 6.02066 6.97778 7.21174C6.18193 8.40282 5.75714 9.80316 5.75714 11.2357C5.7596 13.1558 6.52347 14.9967 7.88124 16.3544C9.23901 17.7122 11.0798 18.4761 13 18.4785ZM13 5.47852C14.1387 5.47852 15.2517 5.81617 16.1985 6.44877C17.1453 7.08137 17.8832 7.98051 18.3189 9.0325C18.7547 10.0845 18.8687 11.242 18.6465 12.3588C18.4244 13.4756 17.8761 14.5014 17.0709 15.3066C16.2658 16.1117 15.2399 16.66 14.1232 16.8822C13.0064 17.1043 11.8488 16.9903 10.7968 16.5546C9.74485 16.1188 8.84571 15.3809 8.21311 14.4342C7.58051 13.4874 7.24286 12.3743 7.24286 11.2357C7.24531 9.70952 7.85265 8.2466 8.9318 7.16746C10.0109 6.08831 11.4739 5.48097 13 5.47852Z" fill="#92A2B9"/>
<path d="M10.5857 11.245C11.037 11.245 11.4028 10.8792 11.4028 10.4279C11.4028 9.97656 11.037 9.61072 10.5857 9.61072C10.1344 9.61072 9.76855 9.97656 9.76855 10.4279C9.76855 10.8792 10.1344 11.245 10.5857 11.245Z" fill="#92A2B9"/>
<path d="M15.4607 11.245C15.912 11.245 16.2778 10.8792 16.2778 10.4279C16.2778 9.97656 15.912 9.61072 15.4607 9.61072C15.0094 9.61072 14.6436 9.97656 14.6436 10.4279C14.6436 10.8792 15.0094 11.245 15.4607 11.245Z" fill="#92A2B9"/>
</svg>
