<svg width="26" height="26" viewBox="0 0 26 26" fill="none" xmlns="http://www.w3.org/2000/svg">
<g clip-path="url(#clip0_1430_16567)">
<path d="M5.37641 17.0026C5.16622 17.0026 4.96449 16.9198 4.81499 16.772C4.6655 16.6242 4.58028 16.4235 4.57784 16.2133V6.72333C4.58028 6.51314 4.6655 6.3124 4.81499 6.16464C4.96449 6.01688 5.16622 5.93403 5.37641 5.93404H18.0236C18.2337 5.93403 18.4355 6.01688 18.585 6.16464C18.7345 6.3124 18.8197 6.51314 18.8221 6.72333C18.8221 6.93266 18.9053 7.13342 19.0533 7.28143C19.2013 7.42945 19.4021 7.51261 19.6114 7.51261C19.8207 7.51261 20.0215 7.42945 20.1695 7.28143C20.3175 7.13342 20.4007 6.93266 20.4007 6.72333C20.3982 6.09448 20.1467 5.49223 19.7012 5.04843C19.2556 4.60464 18.6524 4.35546 18.0236 4.35547H5.37641C4.74756 4.35546 4.14433 4.60464 3.69879 5.04843C3.25326 5.49223 3.00172 6.09448 2.99927 6.72333V16.2133C3.00417 16.8406 3.25678 17.4404 3.70205 17.8822C4.14732 18.324 4.74916 18.5719 5.37641 18.5719C5.58574 18.5719 5.7865 18.4887 5.93452 18.3407C6.08254 18.1927 6.1657 17.9919 6.1657 17.7826C6.1657 17.5733 6.08254 17.3725 5.93452 17.2245C5.7865 17.0765 5.58574 16.9933 5.37641 16.9933V17.0026Z" fill="#0A192D"/>
<path d="M21.9792 8.35742H9.28566C8.66998 8.35742 8.07952 8.602 7.64416 9.03735C7.20881 9.4727 6.96423 10.0632 6.96423 10.6789V20.1689C6.96423 20.7845 7.20881 21.375 7.64416 21.8103C8.07952 22.2457 8.66998 22.4903 9.28566 22.4903H21.9792C22.5949 22.4903 23.1854 22.2457 23.6207 21.8103C24.0561 21.375 24.3007 20.7845 24.3007 20.1689V10.6789C24.3007 10.0632 24.0561 9.4727 23.6207 9.03735C23.1854 8.602 22.5949 8.35742 21.9792 8.35742V8.35742ZM22.8149 20.1689C22.8149 20.3905 22.7269 20.6031 22.5702 20.7598C22.4134 20.9165 22.2009 21.0046 21.9792 21.0046H9.28566C9.06402 21.0046 8.85145 20.9165 8.69472 20.7598C8.538 20.6031 8.44995 20.3905 8.44995 20.1689V10.6789C8.44995 10.4572 8.538 10.2446 8.69472 10.0879C8.85145 9.93118 9.06402 9.84314 9.28566 9.84314H21.9792C22.2009 9.84314 22.4134 9.93118 22.5702 10.0879C22.7269 10.2446 22.8149 10.4572 22.8149 10.6789V20.1689Z" fill="#0A192D"/>
<path d="M20.7629 13.9289L16.575 11.5332C16.405 11.4372 16.2131 11.3867 16.0179 11.3867C15.8226 11.3867 15.6307 11.4372 15.4607 11.5332L11.2729 13.9289C11.0144 14.0768 10.8252 14.3212 10.7469 14.6085C10.6685 14.8958 10.7074 15.2024 10.855 15.461C10.9587 15.6442 11.1125 15.7939 11.2984 15.8926C11.4843 15.9913 11.6945 16.0349 11.9043 16.0182V18.4975C11.9137 18.7842 12.0324 19.0565 12.2362 19.2585C12.4399 19.4605 12.7132 19.5769 13 19.5839H18.98C19.278 19.5839 19.5638 19.4655 19.7745 19.2548C19.9852 19.0441 20.1036 18.7583 20.1036 18.4603V15.981C20.3134 15.9977 20.5236 15.9542 20.7095 15.8555C20.8954 15.7568 21.0492 15.6071 21.1529 15.4239C21.2937 15.1726 21.3318 14.8766 21.259 14.5978C21.1863 14.3191 21.0085 14.0794 20.7629 13.9289V13.9289ZM18.6457 14.8575V18.1168H16.9093V17.2346C16.9093 16.9883 16.8115 16.7522 16.6373 16.578C16.4632 16.4039 16.227 16.306 15.9807 16.306C15.7345 16.306 15.4983 16.4039 15.3241 16.578C15.15 16.7522 15.0522 16.9883 15.0522 17.2346V18.1168H13.39V14.8575C13.3891 14.721 13.354 14.5869 13.2879 14.4675L16.0179 12.9075L18.7572 14.4675C18.6841 14.5844 18.6455 14.7196 18.6457 14.8575V14.8575Z" fill="#0A192D"/>
</g>
<defs>
<clipPath id="clip0_1430_16567">
<rect width="26" height="26" fill="white"/>
</clipPath>
</defs>
</svg>
