<svg width="26" height="26" viewBox="0 0 26 26" fill="none" xmlns="http://www.w3.org/2000/svg">
<path d="M4.94001 18.5158C4.31116 18.5158 3.70792 18.2666 3.26239 17.8228C2.81686 17.379 2.56532 16.7767 2.56287 16.1479V6.6579C2.56532 6.02905 2.81686 5.4268 3.26239 4.983C3.70792 4.53921 4.31116 4.29003 4.94001 4.29004H17.5872C18.216 4.29003 18.8192 4.53921 19.2648 4.983C19.7103 5.4268 19.9618 6.02905 19.9643 6.6579C19.9643 6.86723 19.8811 7.06799 19.7331 7.21601C19.5851 7.36403 19.3843 7.44718 19.175 7.44718C18.9657 7.44718 18.7649 7.36403 18.6169 7.21601C18.4689 7.06799 18.3857 6.86723 18.3857 6.6579C18.3833 6.44772 18.2981 6.24697 18.1486 6.09921C17.9991 5.95146 17.7973 5.8686 17.5872 5.86861H4.94001C4.72981 5.8686 4.52809 5.95146 4.37859 6.09921C4.22909 6.24697 4.14388 6.44772 4.14144 6.6579V16.1479C4.14388 16.3581 4.22909 16.5588 4.37859 16.7066C4.52809 16.8543 4.72981 16.9372 4.94001 16.9372C5.14934 16.9372 5.3501 17.0203 5.49812 17.1684C5.64614 17.3164 5.72929 17.5171 5.72929 17.7265C5.72929 17.9358 5.64614 18.1366 5.49812 18.2846C5.3501 18.4326 5.14934 18.5158 4.94001 18.5158Z" fill="#92A2B9"/>
<path d="M21.5429 22.4253H8.88643C8.27075 22.4253 7.68029 22.1808 7.24493 21.7454C6.80958 21.3101 6.565 20.7196 6.565 20.1039V10.6139C6.565 9.99738 6.80928 9.40596 7.24437 8.96913C7.67945 8.5323 8.2699 8.28566 8.88643 8.2832H21.5429C22.1594 8.28566 22.7498 8.5323 23.1849 8.96913C23.62 9.40596 23.8643 9.99738 23.8643 10.6139V20.1039C23.8643 20.4088 23.8042 20.7106 23.6876 20.9923C23.5709 21.2739 23.3999 21.5298 23.1844 21.7454C22.9688 21.961 22.7129 22.132 22.4312 22.2486C22.1496 22.3653 21.8477 22.4253 21.5429 22.4253ZM8.88643 9.76892C8.66394 9.77136 8.45138 9.86147 8.29492 10.0197C8.13845 10.1779 8.0507 10.3914 8.05072 10.6139V20.1039C8.05313 20.3248 8.14195 20.536 8.29816 20.6922C8.45437 20.8484 8.66553 20.9372 8.88643 20.9396H21.5429C21.7645 20.9396 21.9771 20.8516 22.1338 20.6949C22.2905 20.5381 22.3786 20.3256 22.3786 20.1039V10.6139C22.3798 10.5034 22.3591 10.3937 22.3176 10.2913C22.2762 10.1888 22.2148 10.0956 22.1371 10.017C22.0594 9.93838 21.9668 9.87599 21.8648 9.83341C21.7628 9.79083 21.6534 9.76891 21.5429 9.76892H8.88643Z" fill="#92A2B9"/>
<path d="M12.2943 15.0432C13.2533 15.0432 14.0307 14.2657 14.0307 13.3067C14.0307 12.3477 13.2533 11.5703 12.2943 11.5703C11.3353 11.5703 10.5579 12.3477 10.5579 13.3067C10.5579 14.2657 11.3353 15.0432 12.2943 15.0432Z" fill="#92A2B9"/>
<path d="M12.2943 15.0432C12.9774 15.053 13.6292 15.3312 14.1088 15.8178C14.5884 16.3043 14.8572 16.9601 14.8572 17.6432V19.0082H9.65717V17.6432C9.65713 17.2986 9.72559 16.9575 9.85857 16.6396C9.99155 16.3217 10.1864 16.0334 10.4318 15.7915C10.6772 15.5496 10.9682 15.3588 11.2879 15.2304C11.6077 15.1019 11.9498 15.0383 12.2943 15.0432Z" fill="#92A2B9"/>
<path d="M20.0943 11.5791H16.9371C16.5269 11.5791 16.1943 11.9117 16.1943 12.322C16.1943 12.7322 16.5269 13.0648 16.9371 13.0648H20.0943C20.5045 13.0648 20.8371 12.7322 20.8371 12.322C20.8371 11.9117 20.5045 11.5791 20.0943 11.5791Z" fill="#92A2B9"/>
<path d="M20.0943 14.3652H16.9371C16.5269 14.3652 16.1943 14.6978 16.1943 15.1081C16.1943 15.5184 16.5269 15.8509 16.9371 15.8509H20.0943C20.5045 15.8509 20.8371 15.5184 20.8371 15.1081C20.8371 14.6978 20.5045 14.3652 20.0943 14.3652Z" fill="#92A2B9"/>
</svg>
