<svg width="24" height="24" viewBox="0 0 24 24" fill="none" xmlns="http://www.w3.org/2000/svg">
<circle cx="12" cy="12" r="12" fill="#2DB7C0"/>
<path d="M18 9.33337C17.0333 9.33337 16.4933 10.2934 16.7133 11.0067L14.3467 13.38C14.1467 13.32 13.8533 13.32 13.6533 13.38L11.9533 11.68C12.18 10.9667 11.64 10 10.6667 10C9.70001 10 9.15334 10.96 9.38 11.68L6.34001 14.7134C5.62667 14.4934 4.66667 15.0334 4.66667 16C4.66667 16.7334 5.26667 17.3334 6.00001 17.3334C6.96667 17.3334 7.50667 16.3734 7.28667 15.66L10.32 12.62C10.52 12.68 10.8133 12.68 11.0133 12.62L12.7133 14.32C12.4867 15.0334 13.0267 16 14 16C14.9667 16 15.5133 15.04 15.2867 14.32L17.66 11.9534C18.3733 12.1734 19.3333 11.6334 19.3333 10.6667C19.3333 9.93337 18.7333 9.33337 18 9.33337Z" fill="white"/>
<path d="M14 10L14.6267 8.62L16 8L14.6267 7.38L14 6L13.3867 7.38L12 8L13.3867 8.62L14 10Z" fill="white"/>
<path d="M6.33334 11.3333L6.66667 10L8 9.66667L6.66667 9.33333L6.33334 8L6.00001 9.33333L4.66667 9.66667L6.00001 10L6.33334 11.3333Z" fill="white"/>
</svg>
