<svg width="24" height="24" viewBox="0 0 24 24" fill="none" xmlns="http://www.w3.org/2000/svg">
<circle cx="12" cy="12" r="12" fill="#2DB7C0"/>
<path d="M9.00002 11.3334C10.2867 11.3334 11.3334 10.2867 11.3334 9.00008C11.3334 7.71341 10.2867 6.66675 9.00002 6.66675C7.71335 6.66675 6.66669 7.71341 6.66669 9.00008C6.66669 10.2867 7.71335 11.3334 9.00002 11.3334ZM9.00002 8.00008C9.55335 8.00008 10 8.44675 10 9.00008C10 9.55341 9.55335 10.0001 9.00002 10.0001C8.44669 10.0001 8.00002 9.55341 8.00002 9.00008C8.00002 8.44675 8.44669 8.00008 9.00002 8.00008Z" fill="white"/>
<path d="M16.3933 6.66381L6.66833 16.3888L7.61113 17.3316L17.3361 7.60661L16.3933 6.66381Z" fill="white"/>
<path d="M15 12.6667C13.7134 12.6667 12.6667 13.7134 12.6667 15.0001C12.6667 16.2867 13.7134 17.3334 15 17.3334C16.2867 17.3334 17.3334 16.2867 17.3334 15.0001C17.3334 13.7134 16.2867 12.6667 15 12.6667ZM15 16.0001C14.4467 16.0001 14 15.5534 14 15.0001C14 14.4467 14.4467 14.0001 15 14.0001C15.5534 14.0001 16 14.4467 16 15.0001C16 15.5534 15.5534 16.0001 15 16.0001Z" fill="white"/>
</svg>
