<svg width="24" height="24" viewBox="0 0 24 24" fill="none" xmlns="http://www.w3.org/2000/svg">
<circle cx="12" cy="12" r="12" fill="#2DB7C0"/>
<path d="M14.6667 11.3334C15.7733 11.3334 16.66 10.44 16.66 9.33337C16.66 8.22671 15.7733 7.33337 14.6667 7.33337C13.56 7.33337 12.6667 8.22671 12.6667 9.33337C12.6667 10.44 13.56 11.3334 14.6667 11.3334ZM9.33332 11.3334C10.44 11.3334 11.3267 10.44 11.3267 9.33337C11.3267 8.22671 10.44 7.33337 9.33332 7.33337C8.22666 7.33337 7.33332 8.22671 7.33332 9.33337C7.33332 10.44 8.22666 11.3334 9.33332 11.3334ZM9.33332 12.6667C7.77999 12.6667 4.66666 13.4467 4.66666 15V16.6667H14V15C14 13.4467 10.8867 12.6667 9.33332 12.6667ZM14.6667 12.6667C14.4733 12.6667 14.2533 12.68 14.02 12.7C14.7933 13.26 15.3333 14.0134 15.3333 15V16.6667H19.3333V15C19.3333 13.4467 16.22 12.6667 14.6667 12.6667Z" fill="white"/>
</svg>
