<svg width="74" height="220" viewBox="0 0 74 220" fill="none" xmlns="http://www.w3.org/2000/svg">
<rect width="74" height="220" fill="white"/>
<rect x="8" y="15" width="20" height="171" fill="url(#paint0_linear_311_4255)"/>
<path d="M4.16 203.523V204.433H12.506V203.523H4.16ZM5.447 206.526H11.128V208.476H5.447V206.526ZM4.55 205.694V209.308H12.077V205.694H4.55ZM5.356 209.568L4.55 209.841C5.928 212.22 8.593 213.572 12.038 214.066C12.168 213.793 12.415 213.403 12.623 213.195C9.243 212.818 6.578 211.609 5.356 209.568ZM7.774 202.132V207.878C7.774 210.075 7.553 212.298 3.692 213.273C3.887 213.481 4.16 213.871 4.277 214.092C8.307 212.896 8.736 210.4 8.736 207.891V202.132H7.774ZM3.601 202.054C2.847 204.03 1.573 205.967 0.26 207.202C0.442 207.436 0.715 207.943 0.806 208.164C2.249 206.721 3.64 204.537 4.524 202.34L3.601 202.054ZM2.236 205.46V214.105H3.172V204.55L3.159 204.537L2.236 205.46ZM15.535 203.003V203.939H23.946V203.003H15.535ZM15.535 206.032V206.955H23.933V206.032H15.535ZM15.47 209.139V210.062H23.959V209.139H15.47ZM14.989 203.003V207.709C14.989 209.542 14.846 211.856 13.416 213.468C13.624 213.598 14.014 213.923 14.17 214.118C15.717 212.389 15.951 209.698 15.951 207.722V203.003H14.989ZM23.556 203.003V212.714C23.556 212.961 23.465 213.039 23.218 213.052C22.971 213.052 22.087 213.065 21.164 213.026C21.307 213.286 21.463 213.715 21.502 213.975C22.737 213.988 23.491 213.975 23.933 213.819C24.362 213.65 24.518 213.351 24.518 212.714V203.003H23.556ZM19.071 203.354V213.923H20.059V203.354H19.071ZM34.281 204.498V205.408H38.48V204.498H34.281ZM34.541 202.08C34.242 204.329 33.696 206.539 32.773 207.956C32.994 208.112 33.371 208.463 33.514 208.632C34.489 207.085 35.113 204.693 35.49 202.223L34.541 202.08ZM36.842 204.979C36.4 208.944 35.36 211.713 32.721 213.273C32.89 213.468 33.176 213.871 33.267 214.079C36.088 212.259 37.232 209.386 37.765 205.07L36.842 204.979ZM34.762 205.317L33.93 205.447C34.489 209.334 35.568 212.545 37.869 214.053C38.025 213.819 38.324 213.468 38.545 213.286C36.335 211.973 35.256 208.879 34.762 205.317ZM29.523 202.08V208.905H30.394V202.08H29.523ZM28.236 203.562H31.785V205.733H28.236V203.562ZM27.404 202.873V206.422H32.643V202.873H27.404ZM27.924 207.683H32.084V208.528H27.924V207.683ZM27.079 207.02V209.191H32.955V207.02H27.079ZM26.52 210.023L26.546 210.803C28.327 210.777 31.018 210.738 33.605 210.673L33.644 209.932C31.005 209.984 28.275 210.023 26.52 210.023ZM29.12 208.983C28.613 209.984 27.872 211.31 27.339 212.142L28.145 212.376C28.665 211.531 29.406 210.231 29.952 209.178L29.12 208.983ZM28.08 211.908C29.588 212.454 31.109 213.195 32.006 213.832L32.63 213.221C31.681 212.584 30.082 211.843 28.561 211.323L28.08 211.908ZM31.46 210.335C30.979 212.168 29.523 213 26.832 213.325C26.988 213.52 27.157 213.845 27.209 214.092C30.173 213.585 31.785 212.597 32.305 210.478L31.46 210.335ZM26.507 204.264V205.018H27.755V204.966H32.24V205.018H33.566V204.264H32.24V204.316H27.755V204.264H26.507ZM46.579 207.449L45.643 207.644C46.449 210.777 48.009 213.026 50.765 214.014C50.908 213.741 51.207 213.338 51.454 213.13C48.815 212.298 47.281 210.218 46.579 207.449ZM41.873 202.717V203.679H49.192V206.864H41.873V207.813H50.193V202.717H41.873ZM41.314 202.717V206.383C41.314 208.515 41.158 211.388 39.416 213.403C39.65 213.533 40.066 213.884 40.235 214.092C42.068 211.947 42.341 208.671 42.341 206.396V202.717H41.314ZM54.925 205.733V206.539H64.168V205.733H54.925ZM55.107 209.529V210.335H62.543V209.529H55.107ZM57.018 204.602V208.697H62.062V204.602H61.113V207.917H57.941V204.602H57.018ZM62.283 209.529V209.672C61.1 211.895 57.889 212.909 54.6 213.221C54.756 213.442 54.938 213.806 55.016 214.053C58.513 213.611 61.841 212.519 63.271 209.815L62.66 209.477L62.478 209.529H62.283ZM57.421 210.205L56.576 210.517C57.993 212.545 60.697 213.65 63.921 214.066C64.038 213.819 64.285 213.442 64.493 213.234C61.347 212.909 58.656 211.934 57.421 210.205ZM58.37 202.093V203.861H59.371V202.093H58.37ZM54.041 203.38V204.264H64.259V203.38H54.041ZM53.56 203.38V207.124C53.56 209.022 53.469 211.661 52.403 213.52C52.624 213.624 53.04 213.897 53.209 214.066C54.327 212.09 54.496 209.152 54.496 207.124V203.38H53.56Z" fill="#333333"/>
<path d="M46.089 171.522C44.685 171.99 42.163 172.432 40.005 172.666C40.109 172.887 40.239 173.238 40.278 173.459C42.514 173.212 45.114 172.809 46.843 172.263L46.089 171.522ZM39.732 172.406V180.349H40.681V172.718L39.732 172.406ZM38.861 180.18L39.069 181.09C40.369 180.856 42.098 180.531 43.749 180.219L43.697 179.335C41.916 179.673 40.096 179.985 38.861 180.18ZM40.278 175.643V176.54H47.467V175.643H40.278ZM43.281 172.679C43.385 177.905 44.438 182.546 46.401 182.546C47.233 182.546 47.571 182.052 47.714 180.284C47.48 180.193 47.142 179.998 46.934 179.79C46.882 181.064 46.752 181.584 46.492 181.584C45.374 181.597 44.282 177.593 44.269 172.679H43.281ZM39.251 181.831V182.702H44.789V181.831H39.251ZM38.432 171.132C37.704 173.108 36.482 175.058 35.195 176.319C35.377 176.54 35.65 177.06 35.754 177.281C37.158 175.825 38.497 173.628 39.355 171.418L38.432 171.132ZM37.08 174.486V183.027H38.016V173.576L37.99 173.563L37.08 174.486Z" fill="#333333"/>
<path d="M35.845 16.328V17.173H47.142V16.328H35.845ZM40.928 15.08V16.731H41.929V15.08H40.928ZM36.417 21.411V27.053H37.366V22.243H46.076V21.411H36.417ZM45.673 21.411V25.857C45.673 26.039 45.621 26.104 45.4 26.104C45.179 26.13 44.451 26.13 43.593 26.104C43.736 26.364 43.879 26.754 43.918 27.027C44.997 27.027 45.699 27.014 46.115 26.871C46.531 26.702 46.648 26.416 46.648 25.883V21.411H45.673ZM39.017 23.088V26.494H39.888V23.088H39.017ZM39.485 23.088V23.79H43.099V25.129H39.485V25.831H43.983V23.088H39.485ZM38.939 18.616H44.022V19.877H38.939V18.616ZM38.003 17.901V20.592H45.01V17.901H38.003Z" fill="#333333"/>
<defs>
<linearGradient id="paint0_linear_311_4255" x1="18" y1="15" x2="18" y2="186" gradientUnits="userSpaceOnUse">
<stop stop-color="#2AB3BC"/>
<stop offset="1" stop-color="white"/>
</linearGradient>
</defs>
</svg>
