<svg width="74" height="220" viewBox="0 0 74 220" fill="none" xmlns="http://www.w3.org/2000/svg">
<rect width="70" height="220" fill="white"/>
<path d="M3.367 25.59V26.474H10.153V25.59H3.367ZM2.431 31.479V32.35H12.012V31.479H2.431ZM2.925 23.601V24.485H11.973V23.601H2.925ZM9.763 25.59V25.798C9.62 30.868 9.438 32.688 9.1 33.104C8.983 33.26 8.866 33.286 8.619 33.286C8.372 33.299 7.774 33.286 7.111 33.234C7.241 33.455 7.332 33.793 7.345 34.014C7.995 34.053 8.645 34.053 9.035 34.027C9.425 33.988 9.711 33.884 9.958 33.559C10.374 33.013 10.556 31.31 10.712 26.071C10.712 25.941 10.725 25.59 10.725 25.59H9.763ZM2.886 25.59C2.665 27.839 2.197 30.972 1.833 32.779L2.821 32.844C3.146 31.05 3.588 27.917 3.874 25.59H2.886ZM3.51 22.015C2.834 23.666 1.716 25.33 0.52 26.383C0.78 26.526 1.222 26.825 1.43 26.981C2.561 25.837 3.744 24.082 4.524 22.301L3.51 22.015ZM5.07 27.059C5.928 27.436 6.929 28.073 7.423 28.554L8.008 27.943C7.488 27.462 6.474 26.877 5.629 26.5L5.07 27.059ZM4.745 29.906C5.629 30.361 6.695 31.076 7.215 31.596L7.787 30.972C7.254 30.465 6.175 29.776 5.291 29.36L4.745 29.906ZM0.546 28.502V29.386H2.977V29.36H10.153V29.386H12.467V28.502H10.153V28.528H2.977V28.502H0.546ZM16.107 27.215H13.585V28.125H15.184V31.817H16.107V27.215ZM16.107 31.427H15.275C14.677 31.999 13.988 32.584 13.429 33.013L13.936 33.936C14.56 33.351 15.145 32.792 15.704 32.233C16.523 33.26 17.706 33.728 19.435 33.793C20.917 33.845 23.751 33.819 25.233 33.754C25.272 33.481 25.428 33.039 25.545 32.831C23.946 32.935 20.891 32.974 19.422 32.909C17.875 32.844 16.718 32.402 16.107 31.427ZM13.65 22.873C14.404 23.523 15.249 24.459 15.587 25.109L16.406 24.563C16.042 23.9 15.171 23.003 14.404 22.392L13.65 22.873ZM18.096 22.587V23.406H24.193V22.587H18.096ZM19.071 24.589V25.304H23.14V24.589H19.071ZM18.954 26.357V27.072H23.257V26.357H18.954ZM20.618 23.666V26.76H21.45V23.666H20.618ZM17.576 22.587V25.967C17.576 27.631 17.472 29.919 16.458 31.557C16.666 31.648 17.056 31.895 17.225 32.064C18.304 30.322 18.473 27.774 18.473 25.967V22.587H17.576ZM23.764 22.587V31.128C23.764 31.31 23.699 31.362 23.517 31.375C23.348 31.375 22.75 31.375 22.1 31.362C22.217 31.596 22.347 31.96 22.373 32.207C23.309 32.207 23.868 32.194 24.206 32.051C24.544 31.895 24.661 31.648 24.661 31.141V22.587H23.764ZM19.682 27.8V28.502H22.022V29.958H19.682V30.66H22.802V27.8H19.682ZM19.305 27.8V31.323H20.085V27.8H19.305ZM30.1733 33.1293C29.5639 33.1293 29.0207 33.0246 28.5437 32.8153C28.0697 32.6061 27.6927 32.3152 27.4126 31.9428C27.1357 31.5674 26.9848 31.1319 26.9602 30.6364H28.1236C28.1482 30.9411 28.2528 31.2042 28.4375 31.4258C28.6222 31.6443 28.8638 31.8136 29.1623 31.9336C29.4608 32.0536 29.7917 32.1136 30.1548 32.1136C30.5611 32.1136 30.9212 32.0429 31.2351 31.9013C31.549 31.7597 31.7952 31.5627 31.9737 31.3104C32.1522 31.058 32.2415 30.7656 32.2415 30.4332C32.2415 30.0855 32.1553 29.7792 31.983 29.5146C31.8106 29.2468 31.5582 29.0375 31.2259 28.8867C30.8935 28.7359 30.4872 28.6605 30.0071 28.6605H29.25V27.6449H30.0071C30.3826 27.6449 30.7119 27.5772 30.995 27.4418C31.2813 27.3063 31.5044 27.1155 31.6644 26.8693C31.8275 26.6231 31.9091 26.3338 31.9091 26.0014C31.9091 25.6813 31.8383 25.4028 31.6967 25.1658C31.5552 24.9289 31.3551 24.7442 31.0966 24.6119C30.8411 24.4795 30.5395 24.4134 30.1918 24.4134C29.8655 24.4134 29.5578 24.4734 29.2685 24.5934C28.9822 24.7103 28.7483 24.8812 28.5668 25.1058C28.3852 25.3274 28.2867 25.5952 28.2713 25.9091H27.1634C27.1818 25.4136 27.3311 24.9796 27.6112 24.6072C27.8912 24.2318 28.2575 23.9394 28.7099 23.7301C29.1654 23.5208 29.6655 23.4162 30.2102 23.4162C30.795 23.4162 31.2966 23.5347 31.7152 23.7717C32.1338 24.0056 32.4554 24.3149 32.68 24.6996C32.9047 25.0843 33.017 25.4998 33.017 25.946C33.017 26.4785 32.877 26.9324 32.5969 27.3079C32.32 27.6834 31.9429 27.9434 31.4659 28.0881V28.1619C32.063 28.2604 32.5292 28.5143 32.8647 28.9237C33.2002 29.3299 33.3679 29.8331 33.3679 30.4332C33.3679 30.9472 33.2279 31.4089 32.9478 31.8182C32.6708 32.2244 32.2923 32.5445 31.8121 32.7784C31.332 33.0123 30.7857 33.1293 30.1733 33.1293ZM36.5653 22.964V33.897H37.5663V23.952H44.0533V33.845H45.0803V22.964H36.5653ZM37.2283 27.475V28.437H44.4823V27.475H37.2283ZM37.2153 32.077V33.052H44.5083V32.077H37.2153ZM52.0093 24.134C52.8413 25.096 53.6863 26.435 54.0243 27.332L54.9603 26.825C54.5833 25.941 53.7513 24.654 52.8803 23.705L52.0093 24.134ZM47.7323 31.622L48.0833 32.636C49.5263 32.012 51.5023 31.141 53.3093 30.309L53.0883 29.36C51.1383 30.218 49.0583 31.102 47.7323 31.622ZM55.5323 29.906C56.7803 31.18 58.3403 32.935 59.0683 34.014L59.9003 33.247C59.1333 32.181 57.5213 30.491 56.2863 29.269L55.5323 29.906ZM57.3393 22.756C56.7543 28.411 55.3763 31.596 50.8783 33.234C51.1253 33.442 51.5153 33.871 51.6583 34.079C56.2083 32.181 57.7293 28.866 58.3923 22.86L57.3393 22.756ZM49.3183 22.795L49.5393 31.388L50.5403 31.349L50.3193 22.756L49.3183 22.795ZM66.3873 26.292V27.267H71.7303V26.292H66.3873ZM60.9403 32.454V33.429H72.6143V32.454H60.9403ZM65.8283 22.275V32.974H66.8553V22.275H65.8283Z" fill="#333333"/>
<path d="M3.367 61.59V62.474H10.153V61.59H3.367ZM2.431 67.479V68.35H12.012V67.479H2.431ZM2.925 59.601V60.485H11.973V59.601H2.925ZM9.763 61.59V61.798C9.62 66.868 9.438 68.688 9.1 69.104C8.983 69.26 8.866 69.286 8.619 69.286C8.372 69.299 7.774 69.286 7.111 69.234C7.241 69.455 7.332 69.793 7.345 70.014C7.995 70.053 8.645 70.053 9.035 70.027C9.425 69.988 9.711 69.884 9.958 69.559C10.374 69.013 10.556 67.31 10.712 62.071C10.712 61.941 10.725 61.59 10.725 61.59H9.763ZM2.886 61.59C2.665 63.839 2.197 66.972 1.833 68.779L2.821 68.844C3.146 67.05 3.588 63.917 3.874 61.59H2.886ZM3.51 58.015C2.834 59.666 1.716 61.33 0.52 62.383C0.78 62.526 1.222 62.825 1.43 62.981C2.561 61.837 3.744 60.082 4.524 58.301L3.51 58.015ZM5.07 63.059C5.928 63.436 6.929 64.073 7.423 64.554L8.008 63.943C7.488 63.462 6.474 62.877 5.629 62.5L5.07 63.059ZM4.745 65.906C5.629 66.361 6.695 67.076 7.215 67.596L7.787 66.972C7.254 66.465 6.175 65.776 5.291 65.36L4.745 65.906ZM0.546 64.502V65.386H2.977V65.36H10.153V65.386H12.467V64.502H10.153V64.528H2.977V64.502H0.546ZM16.107 63.215H13.585V64.125H15.184V67.817H16.107V63.215ZM16.107 67.427H15.275C14.677 67.999 13.988 68.584 13.429 69.013L13.936 69.936C14.56 69.351 15.145 68.792 15.704 68.233C16.523 69.26 17.706 69.728 19.435 69.793C20.917 69.845 23.751 69.819 25.233 69.754C25.272 69.481 25.428 69.039 25.545 68.831C23.946 68.935 20.891 68.974 19.422 68.909C17.875 68.844 16.718 68.402 16.107 67.427ZM13.65 58.873C14.404 59.523 15.249 60.459 15.587 61.109L16.406 60.563C16.042 59.9 15.171 59.003 14.404 58.392L13.65 58.873ZM18.096 58.587V59.406H24.193V58.587H18.096ZM19.071 60.589V61.304H23.14V60.589H19.071ZM18.954 62.357V63.072H23.257V62.357H18.954ZM20.618 59.666V62.76H21.45V59.666H20.618ZM17.576 58.587V61.967C17.576 63.631 17.472 65.919 16.458 67.557C16.666 67.648 17.056 67.895 17.225 68.064C18.304 66.322 18.473 63.774 18.473 61.967V58.587H17.576ZM23.764 58.587V67.128C23.764 67.31 23.699 67.362 23.517 67.375C23.348 67.375 22.75 67.375 22.1 67.362C22.217 67.596 22.347 67.96 22.373 68.207C23.309 68.207 23.868 68.194 24.206 68.051C24.544 67.895 24.661 67.648 24.661 67.141V58.587H23.764ZM19.682 63.8V64.502H22.022V65.958H19.682V66.66H22.802V63.8H19.682ZM19.305 63.8V67.323H20.085V63.8H19.305ZM26.9787 69V68.169L30.0994 64.7528C30.4657 64.3527 30.7673 64.005 31.0043 63.7095C31.2412 63.411 31.4167 63.1309 31.5305 62.8693C31.6475 62.6046 31.706 62.3277 31.706 62.0384C31.706 61.706 31.6259 61.4182 31.4659 61.1751C31.3089 60.9319 31.0935 60.7442 30.8196 60.6119C30.5457 60.4795 30.2379 60.4134 29.8963 60.4134C29.5331 60.4134 29.2161 60.4888 28.9453 60.6396C28.6776 60.7873 28.4698 60.995 28.3221 61.2628C28.1774 61.5305 28.1051 61.8445 28.1051 62.2045H27.0156C27.0156 61.6506 27.1433 61.1643 27.3988 60.7457C27.6542 60.3272 28.002 60.0009 28.4421 59.767C28.8853 59.5331 29.3823 59.4162 29.9332 59.4162C30.4872 59.4162 30.9781 59.5331 31.4059 59.767C31.8337 60.0009 32.1692 60.3164 32.4123 60.7134C32.6554 61.1104 32.777 61.5521 32.777 62.0384C32.777 62.3861 32.7139 62.7262 32.5877 63.0586C32.4646 63.3879 32.2492 63.7557 31.9414 64.1619C31.6367 64.5651 31.2135 65.0575 30.6719 65.6392L28.5483 67.9105V67.9844H32.9432V69H26.9787ZM36.1591 58.964V69.897H37.1601V59.952H43.6471V69.845H44.6741V58.964H36.1591ZM36.8221 63.475V64.437H44.0761V63.475H36.8221ZM36.8091 68.077V69.052H44.1021V68.077H36.8091Z" fill="#333333"/>
<path d="M3.367 97.59V98.474H10.153V97.59H3.367ZM2.431 103.479V104.35H12.012V103.479H2.431ZM2.925 95.601V96.485H11.973V95.601H2.925ZM9.763 97.59V97.798C9.62 102.868 9.438 104.688 9.1 105.104C8.983 105.26 8.866 105.286 8.619 105.286C8.372 105.299 7.774 105.286 7.111 105.234C7.241 105.455 7.332 105.793 7.345 106.014C7.995 106.053 8.645 106.053 9.035 106.027C9.425 105.988 9.711 105.884 9.958 105.559C10.374 105.013 10.556 103.31 10.712 98.071C10.712 97.941 10.725 97.59 10.725 97.59H9.763ZM2.886 97.59C2.665 99.839 2.197 102.972 1.833 104.779L2.821 104.844C3.146 103.05 3.588 99.917 3.874 97.59H2.886ZM3.51 94.015C2.834 95.666 1.716 97.33 0.52 98.383C0.78 98.526 1.222 98.825 1.43 98.981C2.561 97.837 3.744 96.082 4.524 94.301L3.51 94.015ZM5.07 99.059C5.928 99.436 6.929 100.073 7.423 100.554L8.008 99.943C7.488 99.462 6.474 98.877 5.629 98.5L5.07 99.059ZM4.745 101.906C5.629 102.361 6.695 103.076 7.215 103.596L7.787 102.972C7.254 102.465 6.175 101.776 5.291 101.36L4.745 101.906ZM0.546 100.502V101.386H2.977V101.36H10.153V101.386H12.467V100.502H10.153V100.528H2.977V100.502H0.546ZM16.107 99.215H13.585V100.125H15.184V103.817H16.107V99.215ZM16.107 103.427H15.275C14.677 103.999 13.988 104.584 13.429 105.013L13.936 105.936C14.56 105.351 15.145 104.792 15.704 104.233C16.523 105.26 17.706 105.728 19.435 105.793C20.917 105.845 23.751 105.819 25.233 105.754C25.272 105.481 25.428 105.039 25.545 104.831C23.946 104.935 20.891 104.974 19.422 104.909C17.875 104.844 16.718 104.402 16.107 103.427ZM13.65 94.873C14.404 95.523 15.249 96.459 15.587 97.109L16.406 96.563C16.042 95.9 15.171 95.003 14.404 94.392L13.65 94.873ZM18.096 94.587V95.406H24.193V94.587H18.096ZM19.071 96.589V97.304H23.14V96.589H19.071ZM18.954 98.357V99.072H23.257V98.357H18.954ZM20.618 95.666V98.76H21.45V95.666H20.618ZM17.576 94.587V97.967C17.576 99.631 17.472 101.919 16.458 103.557C16.666 103.648 17.056 103.895 17.225 104.064C18.304 102.322 18.473 99.774 18.473 97.967V94.587H17.576ZM23.764 94.587V103.128C23.764 103.31 23.699 103.362 23.517 103.375C23.348 103.375 22.75 103.375 22.1 103.362C22.217 103.596 22.347 103.96 22.373 104.207C23.309 104.207 23.868 104.194 24.206 104.051C24.544 103.895 24.661 103.648 24.661 103.141V94.587H23.764ZM19.682 99.8V100.502H22.022V101.958H19.682V102.66H22.802V99.8H19.682ZM19.305 99.8V103.323H20.085V99.8H19.305ZM30.3026 95.5455V105H29.1577V96.7457H29.1023L26.794 98.2784V97.1151L29.1577 95.5455H30.3026ZM34.331 94.964V105.897H35.332V95.952H41.819V105.845H42.846V94.964H34.331ZM34.994 99.475V100.437H42.248V99.475H34.994ZM34.981 104.077V105.052H42.274V104.077H34.981Z" fill="#333333"/>
<path d="M6.162 151.411V157.053H7.15V151.411H6.162ZM4.069 149.63H8.983V150.891H4.069V149.63ZM3.12 148.889V151.645H9.984V148.889H3.12ZM1.963 152.724V156.455H2.938V153.608H10.673V152.724H1.963ZM10.192 152.724V155.441C10.192 155.584 10.127 155.636 9.932 155.649C9.724 155.662 9.022 155.662 8.242 155.636C8.385 155.896 8.528 156.26 8.58 156.52C9.594 156.52 10.257 156.52 10.673 156.364C11.076 156.221 11.18 155.948 11.18 155.441V152.724H10.192ZM6.071 145.08V147.446H7.072V145.08H6.071ZM1.105 147.095V149.903H2.054V147.966H10.998V149.903H11.973V147.095H1.105ZM2.184 145.561C2.587 146.042 3.029 146.718 3.224 147.16L4.16 146.731C3.939 146.302 3.484 145.678 3.055 145.21L2.184 145.561ZM9.906 145.184C9.659 145.652 9.178 146.354 8.814 146.783L9.607 147.108C9.997 146.705 10.491 146.107 10.92 145.535L9.906 145.184ZM16.952 154.154V155.753C16.952 156.676 17.29 156.923 18.655 156.923C18.928 156.923 20.943 156.923 21.242 156.923C22.282 156.923 22.568 156.611 22.685 155.246C22.425 155.194 22.048 155.064 21.84 154.921C21.788 155.961 21.697 156.104 21.138 156.104C20.709 156.104 19.045 156.104 18.72 156.104C18.031 156.104 17.901 156.052 17.901 155.74V154.154H16.952ZM18.07 153.842C18.837 154.18 19.734 154.752 20.176 155.207L20.787 154.596C20.345 154.128 19.435 153.595 18.668 153.283L18.07 153.842ZM22.386 154.414C23.309 155.077 24.271 156.065 24.674 156.793L25.506 156.286C25.064 155.545 24.076 154.596 23.14 153.946L22.386 154.414ZM15.327 154.089C15.028 154.947 14.404 155.805 13.507 156.299L14.274 156.832C15.236 156.273 15.795 155.337 16.159 154.388L15.327 154.089ZM14.443 148.447V153.556H15.314V149.162H18.46V148.447H14.443ZM20.098 145.197V147.914C20.098 148.863 20.397 149.123 21.632 149.123C21.892 149.123 23.608 149.123 23.868 149.123C24.83 149.123 25.09 148.785 25.194 147.498C24.947 147.446 24.583 147.329 24.388 147.186C24.336 148.161 24.245 148.304 23.79 148.304C23.426 148.304 21.97 148.304 21.697 148.304C21.099 148.304 20.995 148.252 20.995 147.901V145.197H20.098ZM20.098 149.422V152.347C20.098 153.309 20.397 153.569 21.632 153.569C21.892 153.569 23.647 153.569 23.92 153.569C24.882 153.569 25.155 153.231 25.259 151.918C25.012 151.879 24.648 151.749 24.44 151.593C24.401 152.607 24.31 152.75 23.842 152.75C23.465 152.75 21.996 152.75 21.71 152.75C21.099 152.75 20.995 152.685 20.995 152.347V149.422H20.098ZM15.769 145.015C15.47 145.691 14.924 146.64 14.495 147.251L15.184 147.511C15.652 146.952 16.237 146.068 16.731 145.301L15.769 145.015ZM17.316 146.068C18.005 146.692 18.746 147.576 19.071 148.187L19.812 147.745C19.474 147.134 18.72 146.276 18.005 145.678L17.316 146.068ZM23.816 145.522C23.075 145.938 21.723 146.393 20.527 146.692C20.631 146.874 20.748 147.16 20.787 147.329C22.061 147.043 23.53 146.614 24.557 146.12L23.816 145.522ZM23.959 149.812C23.179 150.254 21.762 150.709 20.527 151.008C20.631 151.19 20.748 151.476 20.787 151.658C22.113 151.359 23.634 150.917 24.687 150.423L23.959 149.812ZM18.148 148.447V152.607C18.148 152.737 18.096 152.776 17.94 152.776C17.797 152.789 17.316 152.789 16.783 152.776C16.887 152.984 17.017 153.27 17.069 153.504C17.81 153.504 18.317 153.491 18.629 153.361C18.941 153.231 19.032 153.036 19.032 152.607V148.447H18.148ZM13.663 146.978L13.715 147.784C15.08 147.732 17.017 147.654 18.902 147.563L18.915 146.835C16.952 146.887 14.989 146.952 13.663 146.978ZM14.937 149.864V150.488H18.473V149.864H14.937ZM14.937 151.216V151.84H18.473V151.216H14.937ZM30.16 146.523V147.433H38.506V146.523H30.16ZM31.447 149.526H37.128V151.476H31.447V149.526ZM30.55 148.694V152.308H38.077V148.694H30.55ZM31.356 152.568L30.55 152.841C31.928 155.22 34.593 156.572 38.038 157.066C38.168 156.793 38.415 156.403 38.623 156.195C35.243 155.818 32.578 154.609 31.356 152.568ZM33.774 145.132V150.878C33.774 153.075 33.553 155.298 29.692 156.273C29.887 156.481 30.16 156.871 30.277 157.092C34.307 155.896 34.736 153.4 34.736 150.891V145.132H33.774ZM29.601 145.054C28.847 147.03 27.573 148.967 26.26 150.202C26.442 150.436 26.715 150.943 26.806 151.164C28.249 149.721 29.64 147.537 30.524 145.34L29.601 145.054ZM28.236 148.46V157.105H29.172V147.55L29.159 147.537L28.236 148.46ZM41.535 146.003V146.939H49.946V146.003H41.535ZM41.535 149.032V149.955H49.933V149.032H41.535ZM41.47 152.139V153.062H49.959V152.139H41.47ZM40.989 146.003V150.709C40.989 152.542 40.846 154.856 39.416 156.468C39.624 156.598 40.014 156.923 40.17 157.118C41.717 155.389 41.951 152.698 41.951 150.722V146.003H40.989ZM49.556 146.003V155.714C49.556 155.961 49.465 156.039 49.218 156.052C48.971 156.052 48.087 156.065 47.164 156.026C47.307 156.286 47.463 156.715 47.502 156.975C48.737 156.988 49.491 156.975 49.933 156.819C50.362 156.65 50.518 156.351 50.518 155.714V146.003H49.556ZM45.071 146.354V156.923H46.059V146.354H45.071ZM57.954 145.093V146.913H58.955V145.093H57.954ZM57.954 152.516V157.092H58.955V152.516H57.954ZM52.689 153.53V154.427H64.311V153.53H52.689ZM53.092 146.549V147.446H63.947V146.549H53.092ZM62.92 147.797C62.426 148.317 61.542 149.019 60.905 149.461L61.607 149.877C62.27 149.461 63.115 148.863 63.778 148.252L62.92 147.797ZM57.746 147.238C57.421 147.797 56.849 148.642 56.394 149.162L57.031 149.461C57.512 148.967 58.097 148.239 58.591 147.563L57.746 147.238ZM59.644 148.226C58.812 149.396 57.408 151.008 56.303 151.983L56.888 152.321C57.993 151.385 59.41 149.864 60.424 148.603L59.644 148.226ZM55.835 149.149C56.602 149.63 57.551 150.345 58.006 150.826L58.513 150.176C58.045 149.708 57.07 149.032 56.329 148.59L55.835 149.149ZM55.679 151.671L55.809 152.516C57.148 152.425 58.929 152.308 60.697 152.165V151.45C58.825 151.541 56.94 151.632 55.679 151.671ZM59.163 150.501C59.8 151.229 60.489 152.256 60.775 152.919L61.529 152.529C61.23 151.879 60.515 150.891 59.865 150.176L59.163 150.501ZM52.637 151.944L53.131 152.737C53.989 152.347 55.068 151.84 56.108 151.346L55.926 150.605C54.717 151.112 53.469 151.632 52.637 151.944ZM53.105 148.525C53.833 148.941 54.717 149.565 55.159 149.994L55.835 149.383C55.38 148.967 54.47 148.369 53.755 147.992L53.105 148.525ZM60.658 151.008C61.672 151.528 62.972 152.334 63.609 152.867L64.324 152.243C63.648 151.71 62.335 150.956 61.334 150.462L60.658 151.008Z" fill="#333333"/>
<rect x="1" y="38" width="60" height="8" fill="#2BB5C8"/>
<rect x="1" y="74" width="60" height="8" fill="#79E0CF"/>
<rect x="1" y="110" width="60" height="8" fill="#BEEBEE"/>
<path d="M5 166H51" stroke="#75CDD2" stroke-width="2"/>
<circle cx="5" cy="166" r="4" fill="#23989F"/>
<circle cx="50" cy="166" r="4" fill="#23989F"/>
</svg>
