<svg width="74" height="220" viewBox="0 0 74 220" fill="none" xmlns="http://www.w3.org/2000/svg">
<rect width="74" height="220" fill="white"/>
<rect x="8" y="15" width="20" height="171" fill="url(#paint0_linear_473_1699)"/>
<path d="M10.16 203.523V204.433H18.506V203.523H10.16ZM11.447 206.526H17.128V208.476H11.447V206.526ZM10.55 205.694V209.308H18.077V205.694H10.55ZM11.356 209.568L10.55 209.841C11.928 212.22 14.593 213.572 18.038 214.066C18.168 213.793 18.415 213.403 18.623 213.195C15.243 212.818 12.578 211.609 11.356 209.568ZM13.774 202.132V207.878C13.774 210.075 13.553 212.298 9.692 213.273C9.887 213.481 10.16 213.871 10.277 214.092C14.307 212.896 14.736 210.4 14.736 207.891V202.132H13.774ZM9.601 202.054C8.847 204.03 7.573 205.967 6.26 207.202C6.442 207.436 6.715 207.943 6.806 208.164C8.249 206.721 9.64 204.537 10.524 202.34L9.601 202.054ZM8.236 205.46V214.105H9.172V204.55L9.159 204.537L8.236 205.46ZM21.535 203.003V203.939H29.946V203.003H21.535ZM21.535 206.032V206.955H29.933V206.032H21.535ZM21.47 209.139V210.062H29.959V209.139H21.47ZM20.989 203.003V207.709C20.989 209.542 20.846 211.856 19.416 213.468C19.624 213.598 20.014 213.923 20.17 214.118C21.717 212.389 21.951 209.698 21.951 207.722V203.003H20.989ZM29.556 203.003V212.714C29.556 212.961 29.465 213.039 29.218 213.052C28.971 213.052 28.087 213.065 27.164 213.026C27.307 213.286 27.463 213.715 27.502 213.975C28.737 213.988 29.491 213.975 29.933 213.819C30.362 213.65 30.518 213.351 30.518 212.714V203.003H29.556ZM25.071 203.354V213.923H26.059V203.354H25.071ZM39.579 207.449L38.643 207.644C39.449 210.777 41.009 213.026 43.765 214.014C43.908 213.741 44.207 213.338 44.454 213.13C41.815 212.298 40.281 210.218 39.579 207.449ZM34.873 202.717V203.679H42.192V206.864H34.873V207.813H43.193V202.717H34.873ZM34.314 202.717V206.383C34.314 208.515 34.158 211.388 32.416 213.403C32.65 213.533 33.066 213.884 33.235 214.092C35.068 211.947 35.341 208.671 35.341 206.396V202.717H34.314ZM47.925 205.733V206.539H57.168V205.733H47.925ZM48.107 209.529V210.335H55.543V209.529H48.107ZM50.018 204.602V208.697H55.062V204.602H54.113V207.917H50.941V204.602H50.018ZM55.283 209.529V209.672C54.1 211.895 50.889 212.909 47.6 213.221C47.756 213.442 47.938 213.806 48.016 214.053C51.513 213.611 54.841 212.519 56.271 209.815L55.66 209.477L55.478 209.529H55.283ZM50.421 210.205L49.576 210.517C50.993 212.545 53.697 213.65 56.921 214.066C57.038 213.819 57.285 213.442 57.493 213.234C54.347 212.909 51.656 211.934 50.421 210.205ZM51.37 202.093V203.861H52.371V202.093H51.37ZM47.041 203.38V204.264H57.259V203.38H47.041ZM46.56 203.38V207.124C46.56 209.022 46.469 211.661 45.403 213.52C45.624 213.624 46.04 213.897 46.209 214.066C47.327 212.09 47.496 209.152 47.496 207.124V203.38H46.56Z" fill="#333333"/>
<path d="M46.089 171.522C44.685 171.99 42.163 172.432 40.005 172.666C40.109 172.887 40.239 173.238 40.278 173.459C42.514 173.212 45.114 172.809 46.843 172.263L46.089 171.522ZM39.732 172.406V180.349H40.681V172.718L39.732 172.406ZM38.861 180.18L39.069 181.09C40.369 180.856 42.098 180.531 43.749 180.219L43.697 179.335C41.916 179.673 40.096 179.985 38.861 180.18ZM40.278 175.643V176.54H47.467V175.643H40.278ZM43.281 172.679C43.385 177.905 44.438 182.546 46.401 182.546C47.233 182.546 47.571 182.052 47.714 180.284C47.48 180.193 47.142 179.998 46.934 179.79C46.882 181.064 46.752 181.584 46.492 181.584C45.374 181.597 44.282 177.593 44.269 172.679H43.281ZM39.251 181.831V182.702H44.789V181.831H39.251ZM38.432 171.132C37.704 173.108 36.482 175.058 35.195 176.319C35.377 176.54 35.65 177.06 35.754 177.281C37.158 175.825 38.497 173.628 39.355 171.418L38.432 171.132ZM37.08 174.486V183.027H38.016V173.576L37.99 173.563L37.08 174.486Z" fill="#333333"/>
<path d="M35.845 16.328V17.173H47.142V16.328H35.845ZM40.928 15.08V16.731H41.929V15.08H40.928ZM36.417 21.411V27.053H37.366V22.243H46.076V21.411H36.417ZM45.673 21.411V25.857C45.673 26.039 45.621 26.104 45.4 26.104C45.179 26.13 44.451 26.13 43.593 26.104C43.736 26.364 43.879 26.754 43.918 27.027C44.997 27.027 45.699 27.014 46.115 26.871C46.531 26.702 46.648 26.416 46.648 25.883V21.411H45.673ZM39.017 23.088V26.494H39.888V23.088H39.017ZM39.485 23.088V23.79H43.099V25.129H39.485V25.831H43.983V23.088H39.485ZM38.939 18.616H44.022V19.877H38.939V18.616ZM38.003 17.901V20.592H45.01V17.901H38.003Z" fill="#333333"/>
<defs>
<linearGradient id="paint0_linear_473_1699" x1="18" y1="15" x2="18" y2="186" gradientUnits="userSpaceOnUse">
<stop offset="0.078125" stop-color="#52CBB9"/>
<stop offset="1" stop-color="#C2F1F4"/>
</linearGradient>
</defs>
</svg>
