<svg fill="#000000" xmlns="http://www.w3.org/2000/svg"  viewBox="0 0 512 512" width="256px" height="256px"><path d="M360.29 342.302c-1.516-3.804-5.196-6.299-9.29-6.299h-40v-40c0-5.522-4.478-10-10-10h-90c-5.523 0-10 4.478-10 10v40h-40c-4.094 0-7.774 2.495-9.29 6.299-1.516 3.803-.56 8.146 2.412 10.961l95 90c3.855 3.653 9.898 3.654 13.755 0l95-90C360.85 350.447 361.805 346.104 360.29 342.302zM221 306.003h70v30h-70V306.003zM256 422.228l-69.904-66.225c33.16 0 110.845 0 139.809 0L256 422.228zM211 276.003h90c5.522 0 10-4.478 10-10v-50c0-5.523-4.478-10-10-10h-90c-5.523 0-10 4.477-10 10v50C201 271.525 205.477 276.003 211 276.003zM221 226.002h70v30h-70V226.002zM211 196.002h90c5.522 0 10-4.477 10-10v-40c0-5.523-4.478-10-10-10h-90c-5.523 0-10 4.477-10 10v40C201 191.525 205.477 196.002 211 196.002zM221 156.002h70v20h-70V156.002zM211 126.002h90c5.522 0 10-4.477 10-10v-30c0-5.523-4.478-10-10-10h-90c-5.523 0-10 4.477-10 10v30C201 121.525 205.477 126.002 211 126.002zM221 96.002h70v10h-70V96.002zM120.997 426A10 10 0 10120.997 446 10 10 0 10120.997 426zM91.003 306A10 10 0 1091.003 326 10 10 0 1091.003 306zM370.997 426A10 10 0 10370.997 446 10 10 0 10370.997 426zM420.997 286A10 10 0 10420.997 306 10 10 0 10420.997 286zM391.003 106.005A10 10 0 10391.003 126.005 10 10 0 10391.003 106.005zM150.997 66A10 10 0 10150.997 86 10 10 0 10150.997 66zM101 116.002c-27.57 0-50 22.43-50 50s22.43 50 50 50 50-22.43 50-50S128.57 116.002 101 116.002zM101 196.002c-16.542 0-30-13.458-30-30s13.458-30 30-30 30 13.458 30 30S117.542 196.002 101 196.002zM431 166.002c-16.542 0-30 13.458-30 30s13.458 30 30 30 30-13.458 30-30S447.542 166.002 431 166.002zM431 206.002c-5.514 0-10-4.486-10-10s4.486-10 10-10 10 4.486 10 10S436.514 206.002 431 206.002z"/></svg>