<svg width="316" height="32" viewBox="0 0 316 32" fill="none" xmlns="http://www.w3.org/2000/svg">
<rect x="8" y="14" width="308" height="18" rx="9" fill="#E1E5EC"/>
<path d="M38.808 17.275L37.625 17.613C37.833 18.029 38.015 18.458 38.184 18.913H36.598V20.031H40.758V18.913H39.354C39.224 18.419 39.042 17.873 38.808 17.275ZM40.615 24.607H36.962V29.183H38.132V28.598H40.615V24.607ZM38.132 27.506V25.699H39.458V27.506H38.132ZM37.053 20.863V21.916H40.524V20.863H37.053ZM37.053 22.657V23.736H40.537V22.657H37.053ZM41.772 22.566V27.506H43.449C42.851 27.896 42.019 28.221 40.953 28.481L41.473 29.378C42.669 29.079 43.579 28.689 44.203 28.195L43.683 27.506H45.685L45.321 28.221C46.27 28.481 47.18 28.858 48.051 29.352L48.441 28.377C47.687 28.013 46.894 27.714 46.075 27.506H47.674V22.566H45.022C45.373 22.319 45.633 22.033 45.802 21.708C45.932 21.435 46.023 21.032 46.075 20.499H46.478V21.617C46.478 21.812 46.53 21.968 46.647 22.098C46.777 22.228 46.946 22.293 47.18 22.293H47.7C47.96 22.293 48.142 22.228 48.246 22.124C48.35 22.02 48.428 21.656 48.493 21.045L47.791 20.824C47.765 21.253 47.739 21.487 47.7 21.526C47.648 21.565 47.596 21.591 47.544 21.591H47.44C47.31 21.591 47.258 21.539 47.258 21.448V20.499H48.142V19.641H47.037V18.952H47.908V18.094H47.037V17.405H46.049V18.094H45.62C45.633 17.977 45.646 17.847 45.672 17.717L44.931 17.6C44.853 18.276 44.697 18.809 44.437 19.199L45.087 19.641H44.632V20.499H45.217C45.178 20.837 45.113 21.097 45.009 21.279C44.918 21.435 44.788 21.591 44.619 21.721L44.463 21.032C44.255 21.149 44.034 21.253 43.813 21.357V20.499H44.385V19.641H43.54V18.952H44.307V18.094H43.54V17.405H42.539V18.094H42.201C42.214 17.977 42.227 17.847 42.253 17.717L41.512 17.613C41.434 18.289 41.252 18.809 40.992 19.199L41.642 19.641H41.044V20.499H41.668C41.629 20.837 41.564 21.11 41.473 21.292C41.317 21.552 41.083 21.773 40.745 21.968L41.317 22.696C41.759 22.41 42.071 22.085 42.253 21.721C42.383 21.435 42.474 21.032 42.526 20.499H42.955V21.435C42.955 21.552 42.89 21.656 42.76 21.747L43.111 22.475C43.514 22.319 43.917 22.137 44.32 21.929L44.827 22.566H41.772ZM45.425 18.952H46.049V19.641H45.113C45.217 19.459 45.321 19.238 45.425 18.952ZM41.993 18.952H42.539V19.641H41.668C41.785 19.459 41.889 19.238 41.993 18.952ZM46.569 26.57H42.877V26.037H46.569V26.57ZM42.877 25.27V24.776H46.569V25.27H42.877ZM42.877 23.996V23.489H46.569V23.996H42.877ZM54.889 18.055H50.365V26.986C50.066 27.038 49.767 27.103 49.455 27.168L49.793 28.351C52.029 27.87 53.992 27.35 55.708 26.791V25.621C55.448 25.699 55.175 25.79 54.889 25.881V18.055ZM51.574 26.726V24.659H53.693V26.219C53.017 26.388 52.302 26.557 51.574 26.726ZM51.574 23.554V21.864H53.693V23.554H51.574ZM51.574 20.746V19.186H53.693V20.746H51.574ZM57.021 17.405V19.901H55.539V21.097H57.021V21.227C56.995 24.62 56.189 27.077 54.603 28.598L55.526 29.417C57.294 27.688 58.204 24.958 58.243 21.227V21.097H59.868C59.842 24.555 59.803 26.583 59.725 27.194C59.621 27.818 59.283 28.143 58.685 28.143C58.347 28.143 57.957 28.117 57.502 28.078L57.801 29.17C58.308 29.196 58.672 29.222 58.88 29.222C60.076 29.222 60.739 28.715 60.882 27.727C61.012 26.739 61.077 24.126 61.077 19.901H58.243V17.405H57.021ZM70.2291 18.536C69.1371 18.536 68.2921 18.991 67.6941 19.914C67.1481 20.759 66.8751 21.903 66.8751 23.359C66.8751 24.802 67.1481 25.946 67.6941 26.804C68.2921 27.714 69.1371 28.182 70.2291 28.182C71.3211 28.182 72.1661 27.714 72.7641 26.804C73.3101 25.946 73.5831 24.789 73.5831 23.359C73.5831 21.916 73.3101 20.772 72.7641 19.914C72.1661 18.991 71.3211 18.536 70.2291 18.536ZM70.2291 19.732C70.9831 19.732 71.5291 20.148 71.8411 20.993C72.0621 21.565 72.1791 22.358 72.1791 23.359C72.1791 24.347 72.0621 25.14 71.8411 25.725C71.5291 26.557 70.9831 26.986 70.2291 26.986C69.4621 26.986 68.9291 26.557 68.6171 25.725C68.3831 25.14 68.2791 24.347 68.2791 23.359C68.2791 22.358 68.3831 21.565 68.6171 20.993C68.9291 20.148 69.4621 19.732 70.2291 19.732ZM83.913 22.917C83.185 22.917 82.626 23.164 82.236 23.684C81.885 24.126 81.716 24.724 81.716 25.465C81.716 26.193 81.885 26.778 82.236 27.246C82.626 27.74 83.185 28 83.913 28C84.628 28 85.174 27.74 85.564 27.246C85.902 26.791 86.084 26.193 86.084 25.465C86.084 24.724 85.902 24.126 85.564 23.684C85.174 23.164 84.628 22.917 83.913 22.917ZM82.626 18.536L77.426 28.182H78.479L83.692 18.536H82.626ZM77.231 18.718C76.503 18.718 75.944 18.965 75.554 19.485C75.203 19.927 75.034 20.525 75.034 21.266C75.034 21.994 75.203 22.579 75.554 23.047C75.944 23.541 76.503 23.801 77.231 23.801C77.946 23.801 78.492 23.541 78.882 23.047C79.22 22.592 79.402 21.994 79.402 21.266C79.402 20.525 79.22 19.927 78.882 19.485C78.492 18.965 77.946 18.718 77.231 18.718ZM83.913 23.814C84.238 23.814 84.472 23.983 84.615 24.334C84.732 24.607 84.797 24.984 84.797 25.465C84.797 25.933 84.732 26.297 84.628 26.57C84.472 26.921 84.238 27.103 83.913 27.103C83.575 27.103 83.328 26.934 83.172 26.596C83.055 26.31 83.003 25.933 83.003 25.465C83.003 24.971 83.055 24.594 83.172 24.321C83.328 23.983 83.575 23.814 83.913 23.814ZM77.231 19.615C77.556 19.615 77.79 19.784 77.933 20.135C78.05 20.408 78.115 20.785 78.115 21.266C78.115 21.734 78.05 22.098 77.946 22.371C77.79 22.722 77.556 22.904 77.231 22.904C76.893 22.904 76.646 22.735 76.49 22.397C76.373 22.111 76.321 21.734 76.321 21.266C76.321 20.772 76.373 20.395 76.49 20.122C76.646 19.784 76.893 19.615 77.231 19.615Z" fill="white"/>
<path d="M2.51098 12.2104C2.48787 12.3961 2.4485 12.5818 2.44423 12.7683C2.43481 13.2333 2.39373 13.703 2.45364 14.1609C2.52639 14.7163 2.63765 15.2782 2.82851 15.8074C3.07415 16.4867 3.40366 17.1421 3.7229 17.7968C3.91548 18.1912 4.15598 18.5649 4.37679 18.9466C4.40247 18.9918 4.44526 19.0283 4.50689 19.0989C4.56166 18.7657 4.58648 18.4784 4.65838 18.2023C4.7996 17.6627 4.93055 17.1167 5.13253 16.5962C5.75219 15.0004 6.75356 13.5872 7.65908 12.1271C8.25135 11.1733 8.82735 10.2084 9.358 9.22443C9.79706 8.4087 10.0966 7.53266 10.2164 6.62805C10.3029 5.97737 10.2986 5.30764 10.2464 4.65299C10.1728 3.73172 9.83729 2.87711 9.2647 2.11057C9.24502 2.08438 9.23304 2.05423 9.20479 2.00424C9.59507 1.99868 9.95112 1.97726 10.3157 2.12961C11.3684 2.57002 12.3981 3.04771 13.3738 3.61825C14.7286 4.41176 15.9654 5.34097 17.0352 6.45268C17.785 7.23192 18.4106 8.08653 18.9121 9.02129C19.3392 9.8156 19.6636 10.6448 19.8699 11.5098C20.1061 12.5048 20.2156 13.511 20.0967 14.5307C20.0633 14.8171 20.0316 15.1036 20.0222 15.4019C20.6128 14.8465 20.9757 14.1641 21.2436 13.4364C21.5132 12.7048 21.6013 11.9438 21.5731 11.1693L21.6278 11.1487C21.7819 11.336 21.9565 11.5121 22.0874 11.7121C22.553 12.4223 23.0298 13.1277 23.4551 13.8586C23.9661 14.7378 24.3127 15.6797 24.5755 16.6486C24.7621 17.3373 24.9307 18.0277 24.9512 18.7411C24.9675 19.3005 25.0205 19.8615 24.9914 20.4185C24.9426 21.3565 24.7544 22.2762 24.4694 23.1816C24.0859 24.4004 23.4509 25.5034 22.6686 26.5286C22.0558 27.3324 21.3497 28.0744 20.7052 28.8584C19.9349 29.7947 18.9233 30.4446 17.8303 31.0048C17.0164 31.4222 16.1519 31.7269 15.2567 31.9563C15.1283 31.9888 14.988 31.9896 14.8536 31.9904C12.6993 31.992 10.5451 31.9809 8.39171 31.9999C7.903 32.0039 7.46736 31.8936 7.04285 31.7063C6.20409 31.3357 5.397 30.9152 4.65495 30.3914C3.3138 29.4448 2.2585 28.2855 1.52587 26.8682C1.11762 26.0787 0.81806 25.2574 0.589541 24.4139C0.463727 23.9505 0.408095 23.4712 0.30111 23.003C0.138494 22.2912 0.069168 21.5715 0.0486269 20.847C0.0263742 20.0765 -0.0224108 19.3037 0.0118243 18.5347C0.0666003 17.2905 0.286561 16.0669 0.763284 14.8949C1.16555 13.9054 1.73128 13.0031 2.50927 12.208L2.51098 12.2104Z" fill="#F3705A"/>
</svg>
